<?xml version="1.0" encoding="UTF-8" standalone="no"?>
<svg
   xmlns:dc="http://purl.org/dc/elements/1.1/"
   xmlns:cc="http://creativecommons.org/ns#"
   xmlns:rdf="http://www.w3.org/1999/02/22-rdf-syntax-ns#"
   xmlns:svg="http://www.w3.org/2000/svg"
   xmlns="http://www.w3.org/2000/svg"
   viewBox="0 0 566.92908 566.92908"
   id="svg16"
   height="566.92908"
   width="566.92908"
   version="1.1">
  <metadata
     id="metadata22">
    <rdf:RDF>
      <cc:Work
         rdf:about="">
        <dc:format>image/svg+xml</dc:format>
        <dc:type
           rdf:resource="http://purl.org/dc/dcmitype/StillImage" />
        <dc:title></dc:title>
      </cc:Work>
    </rdf:RDF>
  </metadata>
  <defs
     id="defs20" />
  <g
     id="Layer1000">
    <path
       id="path2"
       style="fill:none"
       d="M 0,0 V 566.9291 H 566.9291 V 0 Z" />
    <g
       id="Layer1001">
      <path
         id="path4"
         style="fill:#1b1918;fill-rule:evenodd"
         d="m 283.4646,50.9193 c 128.4094,0 232.5452,104.1358 232.5452,232.5453 0,128.4094 -104.1358,232.5452 -232.5452,232.5452 -128.4095,0 -232.5453,-104.1358 -232.5453,-232.5452 0,-128.4095 104.1358,-232.5453 232.5453,-232.5453 z" />
      <path
         id="path6"
         style="fill:#1b1918;fill-rule:evenodd"
         d="m 283.4646,57.8687 c 124.5719,0 225.5958,101.024 225.5958,225.5959 0,124.5719 -101.0239,225.5958 -225.5958,225.5958 -124.5719,0 -225.5959,-101.0239 -225.5959,-225.5958 0,-124.5719 101.024,-225.5959 225.5959,-225.5959 z" />
      <path
         id="path8"
         style="fill:#ffffff;fill-rule:evenodd"
         d="M 271.4088,515.7011 C 148.6006,509.4258 50.9193,407.8304 50.9193,283.4646 c 0,-110.2422 76.756,-202.5902 179.729,-226.5152 3.8407,-0.3685 7.8511,-0.6737 12.0688,-0.9011 32.6347,-1.7594 80.3509,1.4448 107.8597,21.6442 36.5332,26.826 54.2761,74.4313 41.7175,121.6874 -9.3728,35.2655 -38.3627,66.3684 -73.4735,76.9592 -15.2121,4.5885 -31.1519,5.732 -49.0864,7.6315 -29.353,3.1096 -54.8807,17.346 -74.0299,40.2477 -27.8674,33.3272 -36.237,79.5659 -17.4566,119.9004 19.8267,42.5803 53.3614,55.9445 93.1609,71.5824 z m 12.0558,-374.6384 c 15.4567,0 27.9915,12.5348 27.9915,27.9916 0,15.4568 -12.5348,27.9916 -27.9915,27.9916 -15.4568,0 -27.9916,-12.5348 -27.9916,-27.9916 0,-15.4568 12.5348,-27.9916 27.9916,-27.9916 z" />
      <path
         id="path10"
         style="fill:#ffffff;fill-rule:evenodd"
         d="m 283.4646,369.8833 c 15.4567,0 27.9915,12.5348 27.9915,27.9915 0,15.4568 -12.5348,27.9916 -27.9915,27.9916 -15.4568,0 -27.9916,-12.5348 -27.9916,-27.9916 0,-15.4567 12.5348,-27.9915 27.9916,-27.9915 z" />
      <path
         id="path12"
         style="fill:#1b1918;fill-rule:evenodd"
         d="m 283.4646,50.9193 c 128.4094,0 232.5452,104.1358 232.5452,232.5453 0,128.4094 -104.1358,232.5452 -232.5452,232.5452 -128.4095,0 -232.5453,-104.1358 -232.5453,-232.5452 0,-128.4095 104.1358,-232.5453 232.5453,-232.5453 z m 0,6.9494 c 124.5719,0 225.5958,101.024 225.5958,225.5959 0,124.5719 -101.0239,225.5958 -225.5958,225.5958 -124.5719,0 -225.5959,-101.0239 -225.5959,-225.5958 0,-124.5719 101.024,-225.5959 225.5959,-225.5959 z" />
    </g>
  </g>
</svg>
